<svg version="1.1" id="Layer_1" xmlns="http://www.w3.org/2000/svg" xmlns:xlink="http://www.w3.org/1999/xlink" x="0px" y="0px"
	 width="100%" viewBox="0 0 150 148" enable-background="new 0 0 150 148" xml:space="preserve">
<path fill="#F8F8F8" opacity="1.000000" stroke="none" 
	d="
M82.000000,149.000000 
	C54.689190,149.000000 27.878382,149.000000 1.033786,149.000000 
	C1.033786,99.730621 1.033786,50.461212 1.033786,1.095903 
	C50.893929,1.095903 100.788109,1.095903 150.841141,1.095903 
	C150.841141,50.332928 150.841141,99.666412 150.841141,149.000000 
	C128.128250,149.000000 105.314125,149.000000 82.000000,149.000000 
M26.421087,35.284523 
	C25.946125,36.188007 25.471165,37.091492 25.000000,38.000000 
	C25.000000,38.000000 24.994823,37.996212 24.333969,38.054646 
	C23.223091,39.704315 22.112211,41.353989 20.997862,43.491283 
	C20.997862,43.491283 20.996899,43.978909 20.913225,44.711254 
	C20.599928,46.133999 20.286631,47.556740 19.447105,49.450573 
	C18.970074,51.301720 18.493042,53.152863 18.007324,55.877968 
	C18.005077,57.918583 18.002831,59.959202 17.999527,62.749886 
	C17.999811,63.499924 18.000095,64.249962 17.997252,65.491699 
	C17.997252,65.491699 17.994915,65.983398 17.358511,66.082054 
	C16.898701,66.719200 16.438889,67.356346 15.368184,68.325584 
	C14.304016,70.243942 13.239847,72.162308 12.175679,74.080666 
	C12.642828,74.007935 13.109977,73.935204 13.577126,73.862465 
	C14.383036,76.259682 15.188945,78.656898 15.298632,81.139679 
	C15.206304,83.090096 15.113976,85.040520 15.086381,87.614380 
	C15.721879,88.406189 16.357376,89.197990 17.039454,90.588593 
	C17.358725,91.064201 17.677998,91.539818 18.048573,92.650925 
	C18.366734,93.434319 18.684893,94.217705 19.072628,95.691071 
	C20.042694,96.809799 21.012760,97.928535 22.267702,99.670609 
	C22.965042,100.993324 23.553400,102.388763 24.379009,103.625877 
	C27.570803,108.408546 33.024380,111.116280 37.747635,110.001427 
	C39.506248,110.008186 41.264858,110.014946 43.764320,110.030556 
	C46.940380,110.571373 50.309563,112.869102 53.693432,109.067421 
	C54.795418,109.379807 55.897404,109.692192 56.996353,110.751122 
	C57.657574,111.835449 58.318794,112.919785 59.066074,114.681580 
	C60.043839,115.455467 61.021603,116.229362 62.000000,116.999695 
	C62.000000,116.999695 61.995579,117.001610 62.059696,117.659126 
	C63.037674,118.779175 64.015656,119.899231 65.390686,121.545036 
	C67.594040,122.354012 69.797394,123.162987 72.878662,123.992729 
	C75.587807,123.663620 78.296959,123.334511 81.743507,123.005035 
	C83.165512,122.345894 84.587517,121.686745 86.643486,120.923286 
	C87.111000,120.289062 87.578522,119.654846 88.467194,118.797562 
	C88.729111,118.598366 88.909813,118.341934 89.700485,117.937386 
	C91.469025,115.623489 93.237564,113.309593 95.007370,110.501953 
	C95.007370,110.501953 95.001526,110.008240 95.736099,109.919022 
	C96.998703,109.846764 98.262123,109.700691 99.523766,109.714760 
	C105.682014,109.783424 111.839783,109.894844 118.643341,109.715614 
	C126.461365,106.145302 131.197800,99.907616 134.299072,91.317291 
	C134.535248,89.874130 134.771423,88.430962 135.006912,86.492195 
	C135.006912,86.492195 134.999741,85.996643 135.737152,85.859871 
	C136.175903,84.241043 136.614655,82.622223 137.586731,80.464455 
	C137.747910,77.563950 138.554565,74.516136 137.933365,71.794189 
	C136.711151,66.438637 134.695892,61.264069 133.006485,55.261990 
	C133.002365,54.510124 132.998260,53.758259 132.998306,52.198952 
	C132.661606,50.471985 132.324905,48.745018 131.779007,46.495449 
	C131.517853,45.998436 131.256683,45.501427 130.959732,44.413734 
	C130.650986,43.942524 130.342255,43.471313 129.969604,42.405231 
	C129.646408,41.936314 129.323196,41.467392 129.000061,41.000305 
	C129.000061,41.000305 129.005814,40.999538 128.998291,40.273010 
	C126.996941,37.846371 124.995590,35.419731 122.300552,32.980404 
	C121.212219,32.649979 120.123894,32.319550 118.918213,31.318470 
	C117.615997,30.533091 116.313782,29.747713 114.666687,28.488823 
	C114.117912,28.319305 113.569145,28.149788 112.620239,27.313776 
	C109.414711,26.878706 106.209183,26.443634 102.233139,26.005579 
	C95.896095,26.866688 89.552574,27.711767 84.193932,32.988033 
	C83.128487,32.992809 82.063034,32.997589 80.247818,32.999298 
	C79.498062,33.002583 78.748306,33.005863 77.166016,33.003407 
	C75.778595,33.004948 74.391174,33.006485 72.124062,33.001717 
	C70.070541,33.004211 68.017014,33.006710 65.494255,32.997833 
	C65.494255,32.997833 65.024879,32.995422 64.929909,32.358513 
	C64.292549,31.907511 63.655186,31.456507 63.001915,30.996601 
	C63.001915,30.996601 62.989483,30.983271 62.695530,30.385777 
	C61.138966,29.586842 59.582397,28.787905 57.539379,27.462793 
	C56.359901,27.306135 55.180420,27.149479 53.576363,26.481401 
	C52.715778,26.326488 51.855190,26.171577 50.288982,26.007051 
	C49.151493,26.007051 48.014004,26.007051 46.426456,26.007051 
	C47.261215,27.057621 47.635357,27.528490 47.210289,27.999920 
	C46.144657,27.999899 45.079029,27.999880 43.890907,27.302008 
	C40.606083,25.958908 38.647469,26.539642 37.507137,29.565577 
	C36.348064,29.710600 35.188995,29.855623 33.501007,29.991316 
	C33.324692,29.994062 33.148380,29.996807 32.461689,30.360056 
	C31.640614,30.907936 30.819538,31.455816 29.441160,32.269829 
	C28.624990,33.177456 27.808819,34.085083 26.421087,35.284523 
M53.517601,111.419823 
	C53.517601,111.419823 53.577625,111.522369 53.517601,111.419823 
z"/>
<path fill="#EBEDF0" opacity="1.000000" stroke="none" 
	d="
M130.033508,43.000107 
	C130.342255,43.471313 130.650986,43.942524 130.749649,44.881611 
	C130.833389,46.305435 131.127213,47.261383 131.421021,48.217331 
	C131.610077,47.817570 131.799149,47.417809 131.988205,47.018051 
	C132.324905,48.745018 132.661606,50.471985 132.750031,52.788734 
	C132.670746,54.257221 132.839737,55.135929 133.008713,56.014633 
	C134.695892,61.264069 136.711151,66.438637 137.933365,71.794189 
	C138.554565,74.516136 137.747910,77.563950 137.043640,80.937881 
	C136.000275,82.939751 135.500015,84.468201 134.999756,85.996643 
	C134.999741,85.996643 135.006912,86.492195 134.741226,86.940521 
	C134.313492,88.921402 134.151443,90.453949 133.989395,91.986504 
	C131.197800,99.907616 126.461365,106.145302 118.248917,109.489044 
	C117.525124,108.912163 117.127655,108.213196 116.876305,108.262283 
	C109.617821,109.679985 102.485435,109.643364 95.312454,105.897484 
	C95.171707,107.758263 95.086617,108.883255 95.001526,110.008240 
	C95.001526,110.008240 95.007370,110.501953 94.670883,110.800949 
	C92.559357,113.409378 90.784325,115.718826 89.009293,118.028275 
	C88.909813,118.341934 88.729111,118.598366 87.929314,118.943710 
	C86.930794,119.735779 86.470154,120.381691 86.009521,121.027603 
	C84.587517,121.686745 83.165512,122.345894 81.093613,122.721893 
	C77.519707,122.345741 74.235512,120.269356 72.000755,123.971970 
	C69.797394,123.162987 67.594040,122.354012 65.189751,120.916412 
	C63.991070,119.192390 62.993324,118.097000 61.995579,117.001610 
	C61.995579,117.001610 62.000000,116.999695 61.962685,116.661194 
	C60.943584,115.549835 59.961800,114.776978 58.980015,114.004112 
	C58.318794,112.919785 57.657574,111.835449 56.996189,109.994461 
	C56.511322,108.217087 56.026623,107.196381 55.541924,106.175674 
	C54.695461,107.122139 53.848995,108.068611 53.002533,109.015076 
	C50.309563,112.869102 46.940380,110.571373 43.142761,109.753052 
	C40.682732,109.648392 38.844265,109.821236 37.005798,109.994080 
	C33.024380,111.116280 27.570803,108.408546 24.379009,103.625877 
	C23.553400,102.388763 22.965042,100.993324 22.127087,98.990204 
	C20.991997,97.206902 19.997524,96.104004 19.003052,95.001099 
	C18.684893,94.217705 18.366734,93.434319 18.001734,92.032715 
	C17.634220,90.939606 17.313547,90.464699 16.992874,89.989799 
	C16.357376,89.197990 15.721879,88.406189 15.398369,87.243446 
	C15.805190,84.933044 15.900023,82.993576 15.994856,81.054108 
	C15.188945,78.656898 14.383036,76.259682 13.577126,73.862465 
	C13.109977,73.935204 12.642828,74.007935 12.175679,74.080666 
	C13.239847,72.162308 14.304016,70.243942 15.996532,68.118317 
	C17.081558,67.268501 17.538237,66.625946 17.994915,65.983398 
	C17.994915,65.983398 17.997252,65.491699 18.331623,65.245911 
	C19.110388,65.000084 19.554777,65.000038 20.244923,65.217102 
	C20.328487,67.234619 20.166298,69.035027 19.692207,71.109749 
	C19.990318,75.186302 20.600334,78.988533 21.218811,83.185059 
	C22.671783,90.129074 25.525684,95.980972 30.077232,101.304573 
	C31.028490,102.053673 31.796362,102.581329 32.747749,103.390457 
	C33.567081,103.829597 34.202900,103.987259 35.054161,104.372696 
	C35.875973,104.663445 36.482342,104.726418 37.536545,104.884903 
	C41.641853,104.910812 45.299328,104.841209 49.273804,104.730179 
	C50.818119,103.883095 52.045429,103.077446 53.523239,102.142357 
	C53.882385,101.331223 53.991032,100.649536 54.047611,99.629089 
	C54.648056,98.418350 55.300564,97.546356 56.292648,96.786743 
	C57.809044,98.269325 58.985863,99.639542 60.026089,101.328506 
	C59.427650,106.401749 61.579449,109.987625 65.061577,113.356720 
	C69.171165,118.003273 74.076553,120.321030 79.761299,118.093338 
	C86.202042,115.569405 90.334663,110.592979 92.015739,103.726143 
	C92.570625,101.459587 93.366417,99.252014 94.347549,96.846680 
	C95.199341,95.581871 95.755653,94.487846 96.311958,93.393822 
	C96.863167,95.140274 96.259010,96.690323 96.451500,98.134178 
	C96.751625,100.385292 96.576958,104.012421 100.711884,101.216278 
	C100.708710,101.240257 100.759232,101.224106 101.030121,101.226746 
	C101.477859,101.265976 101.654709,101.302567 101.900574,101.691711 
	C105.604202,106.802238 109.095802,107.433182 112.286316,103.901962 
	C113.757858,104.119789 114.906029,104.285751 116.385368,104.405304 
	C117.343613,104.047752 117.970695,103.736603 118.597778,103.425461 
	C118.107399,102.895119 117.617020,102.364784 117.134018,101.884445 
	C117.141396,101.934441 117.230751,101.887207 117.207352,101.666794 
	C117.183952,101.446381 117.169182,101.002724 117.457245,101.093979 
	C118.117905,100.996902 118.490501,100.808578 118.863098,100.620255 
	C118.678535,100.428329 118.493980,100.236404 118.238800,99.804932 
	C118.168175,99.565376 118.224335,99.069054 118.559692,99.129288 
	C119.801392,99.226273 120.707726,99.263039 121.684387,99.548958 
	C122.057945,99.967720 122.361176,100.137329 122.664406,100.306931 
	C122.497841,99.825203 122.331276,99.343483 122.289474,98.602013 
	C123.687263,96.940880 124.960281,95.539490 126.463760,93.868332 
	C127.808327,90.739647 128.922440,87.880730 130.393005,84.861130 
	C132.146713,80.297188 133.993805,75.921295 131.730606,70.255424 
	C130.456131,71.949310 129.730453,72.913788 128.686020,73.866150 
	C127.950966,73.786705 127.534676,73.719376 127.191849,73.246582 
	C127.355476,71.192200 127.484787,69.544273 127.526741,67.894127 
	C127.591568,65.345024 127.704613,62.789684 127.593307,60.245907 
	C127.502274,58.165230 127.168343,56.088985 126.845070,54.025978 
	C126.209686,49.971107 127.176888,45.270966 122.217049,42.523502 
	C120.757622,40.457592 119.903748,38.102821 118.229012,37.032772 
	C115.429420,35.244019 112.105469,34.275944 108.753868,32.734936 
	C108.208672,32.117558 107.832870,31.349802 107.626534,31.392925 
	C102.137627,32.540054 96.655174,33.725784 91.209206,35.058537 
	C90.679710,35.188114 90.393936,36.313633 89.613037,36.983078 
	C86.792908,37.479771 84.308960,37.813232 81.930176,38.507164 
	C79.777649,39.135109 77.739914,40.156536 75.322342,41.015610 
	C73.103783,41.020153 71.214432,41.013550 69.258194,40.660175 
	C68.811600,39.741669 68.431892,39.169933 68.219490,38.316715 
	C67.579025,36.359894 66.771263,34.684547 65.963493,33.009205 
	C68.017014,33.006710 70.070541,33.004211 72.633965,33.361679 
	C75.053192,35.467571 76.791275,36.046711 77.998550,33.009148 
	C78.748306,33.005863 79.498062,33.002583 80.686661,33.345753 
	C82.828629,35.672440 84.175285,35.741333 84.992432,32.971024 
	C89.552574,27.711767 95.896095,26.866688 102.703568,26.384270 
	C106.456123,27.168734 109.738243,27.574503 113.020370,27.980272 
	C113.569145,28.149788 114.117912,28.319305 114.883827,29.067421 
	C116.412498,30.427055 117.724030,31.208088 119.035561,31.989120 
	C120.123894,32.319550 121.212219,32.649979 122.653061,33.350372 
	C125.005646,36.146740 127.005730,38.573139 129.005814,40.999542 
	C129.005814,40.999538 129.000061,41.000305 129.025299,41.298569 
	C129.378204,42.064590 129.705856,42.532349 130.033508,43.000107 
M131.419357,51.482395 
	C131.419357,51.482395 131.525055,51.418854 131.419357,51.482395 
z"/>
<path fill="#EEF6F8" opacity="1.000000" stroke="none" 
	d="
M20.004108,70.835434 
	C20.166298,69.035027 20.328487,67.234619 20.245003,64.842117 
	C19.999071,63.500095 19.998812,62.750156 19.999506,61.583576 
	C20.000019,59.778160 19.999580,58.389389 20.048763,56.604858 
	C20.398796,53.805912 20.699205,51.402729 21.139454,48.677910 
	C21.185162,46.897152 21.091030,45.438030 20.996899,43.978909 
	C20.996899,43.978909 20.997862,43.491283 21.371199,43.239052 
	C22.827965,41.323284 23.911392,39.659748 24.994823,37.996212 
	C24.994823,37.996212 25.000000,38.000000 25.318933,37.970921 
	C26.424368,37.293758 27.210869,36.645676 28.302071,35.838474 
	C29.070669,34.454136 29.534567,33.228916 29.998465,32.003696 
	C30.819538,31.455816 31.640614,30.907936 32.813950,30.347973 
	C33.454113,30.224144 33.742020,30.112394 34.029922,30.000647 
	C35.188995,29.855623 36.348064,29.710600 38.135323,29.290545 
	C40.513474,28.676962 42.263435,28.338411 44.013397,27.999859 
	C45.079029,27.999880 46.144657,27.999899 47.983437,27.998699 
	C49.504185,27.998867 50.251789,28.000256 51.210953,28.257816 
	C52.282543,28.670553 53.142570,28.827118 54.003334,28.991381 
	C54.004074,28.999081 54.016796,28.997446 53.940880,29.364502 
	C52.509415,30.183910 51.153870,30.636267 49.499588,31.288313 
	C46.413849,31.863001 43.626858,32.237995 40.668865,32.453629 
	C39.993629,32.541687 39.489395,32.789112 38.679062,33.171059 
	C38.238945,33.940956 38.104923,34.576328 37.611160,35.201591 
	C35.771458,35.790775 34.291496,36.390064 32.482475,37.030746 
	C31.101559,38.362328 30.049702,39.652519 28.714951,41.153286 
	C23.096241,50.274429 22.449055,59.978310 23.348759,70.006943 
	C22.748335,70.318283 22.388599,70.607323 21.690781,70.890549 
	C20.903170,70.868301 20.453638,70.851868 20.004108,70.835434 
z"/>
<path fill="#EEF6F8" opacity="1.000000" stroke="none" 
	d="
M65.728874,33.003517 
	C66.771263,34.684547 67.579025,36.359894 67.820862,38.413677 
	C66.163437,38.771507 65.071953,38.750896 63.933380,38.469311 
	C63.579422,38.036289 63.272552,37.864239 62.866051,37.548523 
	C62.605057,37.230316 62.413033,37.101460 62.066013,36.776833 
	C60.302036,35.549767 58.662384,34.564171 56.951988,33.254395 
	C56.587410,31.620722 56.293571,30.311226 56.250633,29.002010 
	C56.668804,29.002722 56.836071,29.003153 57.325012,29.147757 
	C59.427620,29.855711 61.208549,30.419491 62.989483,30.983271 
	C62.989483,30.983271 63.001915,30.996601 63.047558,31.321301 
	C63.737091,32.095810 64.380989,32.545616 65.024879,32.995422 
	C65.024879,32.995422 65.494255,32.997833 65.728874,33.003517 
M63.582119,35.518280 
	C63.582119,35.518280 63.478336,35.579342 63.582119,35.518280 
z"/>
<path fill="#EBEAEB" opacity="1.000000" stroke="none" 
	d="
M95.368813,109.963631 
	C95.086617,108.883255 95.171707,107.758263 95.312454,105.897484 
	C102.485435,109.643364 109.617821,109.679985 116.876305,108.262283 
	C117.127655,108.213196 117.525124,108.912163 117.926102,109.626801 
	C111.839783,109.894844 105.682014,109.783424 99.523766,109.714760 
	C98.262123,109.700691 96.998703,109.846764 95.368813,109.963631 
z"/>
<path fill="#EAE9E9" opacity="1.000000" stroke="none" 
	d="
M112.820305,27.647024 
	C109.738243,27.574503 106.456123,27.168734 103.088821,26.385763 
	C106.209183,26.443634 109.414711,26.878706 112.820305,27.647024 
z"/>
<path fill="#EBEAEB" opacity="1.000000" stroke="none" 
	d="
M72.439713,123.982346 
	C74.235512,120.269356 77.519707,122.345741 80.724915,122.722076 
	C78.296959,123.334511 75.587807,123.663620 72.439713,123.982346 
z"/>
<path fill="#EAE9E9" opacity="1.000000" stroke="none" 
	d="
M129.002045,40.636276 
	C127.005730,38.573139 125.005646,36.146740 122.999893,33.356716 
	C124.995590,35.419731 126.996941,37.846371 129.002045,40.636276 
z"/>
<path fill="#EBEBEB" opacity="1.000000" stroke="none" 
	d="
M20.999617,48.999542 
	C20.699205,51.402729 20.398796,53.805912 19.808332,56.449108 
	C19.017523,56.127415 18.516766,55.565712 18.016010,55.004009 
	C18.493042,53.152863 18.970074,51.301720 19.966921,49.221569 
	C20.657698,48.994892 20.828657,48.997219 20.999617,48.999542 
z"/>
<path fill="#EBEAEB" opacity="1.000000" stroke="none" 
	d="
M89.354889,117.982834 
	C90.784325,115.718826 92.559357,113.409378 94.670242,111.047821 
	C93.237564,113.309593 91.469025,115.623489 89.354889,117.982834 
z"/>
<path fill="#EBEDF0" opacity="1.000000" stroke="none" 
	d="
M24.664394,38.025429 
	C23.911392,39.659748 22.827965,41.323284 21.372932,42.995243 
	C22.112211,41.353989 23.223091,39.704315 24.664394,38.025429 
z"/>
<path fill="#EBEDF0" opacity="1.000000" stroke="none" 
	d="
M43.952152,27.650932 
	C42.263435,28.338411 40.513474,28.676962 38.374733,29.034176 
	C38.647469,26.539642 40.606083,25.958908 43.952152,27.650932 
z"/>
<path fill="#E9E9E9" opacity="1.000000" stroke="none" 
	d="
M53.347984,109.041245 
	C53.848995,108.068611 54.695461,107.122139 55.541924,106.175674 
	C56.026623,107.196381 56.511322,108.217087 56.997707,109.621185 
	C55.897404,109.692192 54.795418,109.379807 53.347984,109.041245 
z"/>
<path fill="#EBEDF0" opacity="1.000000" stroke="none" 
	d="
M18.011667,55.440987 
	C18.516766,55.565712 19.017523,56.127415 19.758711,56.844868 
	C19.999580,58.389389 20.000019,59.778160 19.666916,61.583225 
	C18.889111,61.999619 18.444847,61.999718 18.000584,61.999817 
	C18.002831,59.959202 18.005077,57.918583 18.011667,55.440987 
z"/>
<path fill="#E9E9E9" opacity="1.000000" stroke="none" 
	d="
M15.646744,81.096893 
	C15.900023,82.993576 15.805190,84.933044 15.366001,86.931725 
	C15.113976,85.040520 15.206304,83.090096 15.646744,81.096893 
z"/>
<path fill="#EBEDF0" opacity="1.000000" stroke="none" 
	d="
M62.842506,30.684525 
	C61.208549,30.419491 59.427620,29.855711 57.438789,28.927509 
	C57.436741,28.289852 57.701721,28.098480 58.025833,27.988970 
	C59.582397,28.787905 61.138966,29.586842 62.842506,30.684525 
z"/>
<path fill="#EAE9E9" opacity="1.000000" stroke="none" 
	d="
M77.582283,33.006279 
	C76.791275,36.046711 75.053192,35.467571 73.073807,33.364830 
	C74.391174,33.006485 75.778595,33.004948 77.582283,33.006279 
z"/>
<path fill="#EBEDF0" opacity="1.000000" stroke="none" 
	d="
M54.002594,28.983681 
	C53.142570,28.827118 52.282543,28.670553 51.211792,27.926849 
	C50.998913,26.898695 50.996761,26.457680 50.994606,26.016665 
	C51.855190,26.171577 52.715778,26.326488 53.787685,27.069124 
	C54.000202,28.099125 54.001396,28.541403 54.002594,28.983681 
z"/>
<path fill="#E9E9E9" opacity="1.000000" stroke="none" 
	d="
M19.037842,95.346085 
	C19.997524,96.104004 20.991997,97.206902 21.984648,98.678543 
	C21.012760,97.928535 20.042694,96.809799 19.037842,95.346085 
z"/>
<path fill="#EAE9E9" opacity="1.000000" stroke="none" 
	d="
M118.976883,31.653795 
	C117.724030,31.208088 116.412498,30.427055 115.056267,29.304178 
	C116.313782,29.747713 117.615997,30.533091 118.976883,31.653795 
z"/>
<path fill="#E9E9E9" opacity="1.000000" stroke="none" 
	d="
M37.376717,109.997757 
	C38.844265,109.821236 40.682732,109.648392 42.772335,109.748627 
	C41.264858,110.014946 39.506248,110.008186 37.376717,109.997757 
z"/>
<path fill="#EAE9E9" opacity="1.000000" stroke="none" 
	d="
M50.641792,26.011858 
	C50.996761,26.457680 50.998913,26.898695 51.000229,27.670677 
	C50.251789,28.000256 49.504185,27.998867 48.383041,27.998421 
	C47.635357,27.528490 47.261215,27.057621 46.426456,26.007051 
	C48.014004,26.007051 49.151493,26.007051 50.641792,26.011858 
z"/>
<path fill="#EBEAEB" opacity="1.000000" stroke="none" 
	d="
M62.027637,117.330368 
	C62.993324,118.097000 63.991070,119.192390 64.991226,120.653534 
	C64.015656,119.899231 63.037674,118.779175 62.027637,117.330368 
z"/>
<path fill="#EAE9E9" opacity="1.000000" stroke="none" 
	d="
M84.593185,32.979530 
	C84.175285,35.741333 82.828629,35.672440 81.061546,33.347290 
	C82.063034,32.997589 83.128487,32.992809 84.593185,32.979530 
z"/>
<path fill="#E9EAEB" opacity="1.000000" stroke="none" 
	d="
M29.719812,32.136765 
	C29.534567,33.228916 29.070669,34.454136 28.084385,35.726952 
	C27.291540,35.572693 27.101755,35.312077 26.992645,34.992706 
	C27.808819,34.085083 28.624990,33.177456 29.719812,32.136765 
z"/>
<path fill="#E4E5E6" opacity="1.000000" stroke="none" 
	d="
M134.144226,91.651901 
	C134.151443,90.453949 134.313492,88.921402 134.741577,87.188324 
	C134.771423,88.430962 134.535248,89.874130 134.144226,91.651901 
z"/>
<path fill="#EAE9E9" opacity="1.000000" stroke="none" 
	d="
M54.003334,28.991381 
	C54.001396,28.541403 54.000202,28.099125 53.999977,27.324833 
	C55.180420,27.149479 56.359901,27.306135 57.782608,27.725882 
	C57.701721,28.098480 57.436741,28.289852 57.117119,28.783335 
	C56.836071,29.003153 56.668804,29.002722 55.920040,29.000599 
	C54.897961,28.998419 54.457378,28.997932 54.016796,28.997446 
	C54.016796,28.997446 54.004074,28.999081 54.003334,28.991381 
z"/>
<path fill="#EBEDF0" opacity="1.000000" stroke="none" 
	d="
M21.139454,48.677910 
	C20.828657,48.997219 20.657698,48.994892 20.230034,48.986023 
	C20.286631,47.556740 20.599928,46.133999 20.955063,44.345081 
	C21.091030,45.438030 21.185162,46.897152 21.139454,48.677910 
z"/>
<path fill="#E4E5E6" opacity="1.000000" stroke="none" 
	d="
M135.368454,85.928253 
	C135.500015,84.468201 136.000275,82.939751 136.776978,81.207352 
	C136.614655,82.622223 136.175903,84.241043 135.368454,85.928253 
z"/>
<path fill="#E9E9E9" opacity="1.000000" stroke="none" 
	d="
M59.023045,114.342850 
	C59.961800,114.776978 60.943584,115.549835 61.962368,116.662979 
	C61.021603,116.229362 60.043839,115.455467 59.023045,114.342850 
z"/>
<path fill="#EBEDF0" opacity="1.000000" stroke="none" 
	d="
M26.706867,35.138615 
	C27.101755,35.312077 27.291540,35.572693 27.779682,35.886070 
	C27.210869,36.645676 26.424368,37.293758 25.317036,37.968407 
	C25.471165,37.091492 25.946125,36.188007 26.706867,35.138615 
z"/>
<path fill="#EBEBEB" opacity="1.000000" stroke="none" 
	d="
M18.000055,62.374851 
	C18.444847,61.999718 18.889111,61.999619 19.665962,61.999870 
	C19.998812,62.750156 19.999071,63.500095 19.999249,64.625015 
	C19.554777,65.000038 19.110388,65.000084 18.333189,65.000061 
	C18.000095,64.249962 17.999811,63.499924 18.000055,62.374851 
z"/>
<path fill="#E4E5E6" opacity="1.000000" stroke="none" 
	d="
M131.883606,46.756752 
	C131.799149,47.417809 131.610077,47.817570 131.421021,48.217331 
	C131.127213,47.261383 130.833389,46.305435 130.767548,45.176949 
	C131.256683,45.501427 131.517853,45.998436 131.883606,46.756752 
z"/>
<path fill="#EBEAEB" opacity="1.000000" stroke="none" 
	d="
M86.326508,120.975449 
	C86.470154,120.381691 86.930794,119.735779 87.718735,119.055252 
	C87.578522,119.654846 87.111000,120.289062 86.326508,120.975449 
z"/>
<path fill="#EBEDF0" opacity="1.000000" stroke="none" 
	d="
M64.977394,32.676968 
	C64.380989,32.545616 63.737091,32.095810 63.055511,31.325752 
	C63.655186,31.456507 64.292549,31.907511 64.977394,32.676968 
z"/>
<path fill="#EBEBEB" opacity="1.000000" stroke="none" 
	d="
M17.676714,66.032730 
	C17.538237,66.625946 17.081558,67.268501 16.301977,67.952271 
	C16.438889,67.356346 16.898701,66.719200 17.676714,66.032730 
z"/>
<path fill="#E4E5E6" opacity="1.000000" stroke="none" 
	d="
M133.007599,55.638313 
	C132.839737,55.135929 132.670746,54.257221 132.747955,53.192455 
	C132.998260,53.758259 133.002365,54.510124 133.007599,55.638313 
z"/>
<path fill="#E9E9E9" opacity="1.000000" stroke="none" 
	d="
M17.016163,90.289200 
	C17.313547,90.464699 17.634220,90.939606 17.976082,91.714966 
	C17.677998,91.539818 17.358725,91.064201 17.016163,90.289200 
z"/>
<path fill="#E4E5E6" opacity="1.000000" stroke="none" 
	d="
M130.001556,42.702667 
	C129.705856,42.532349 129.378204,42.064590 129.025269,41.297653 
	C129.323196,41.467392 129.646408,41.936314 130.001556,42.702667 
z"/>
<path fill="#EBEDF0" opacity="1.000000" stroke="none" 
	d="
M53.547615,111.471100 
	C53.577625,111.522369 53.517601,111.419823 53.547615,111.471100 
z"/>
<path fill="#EBEDF0" opacity="1.000000" stroke="none" 
	d="
M33.765465,29.995979 
	C33.742020,30.112394 33.454113,30.224144 33.069141,30.167721 
	C33.148380,29.996807 33.324692,29.994062 33.765465,29.995979 
z"/>
<path fill="#0E1C3B" opacity="1.000000" stroke="none" 
	d="
M100.715065,101.192291 
	C96.576958,104.012421 96.751625,100.385292 96.451500,98.134178 
	C96.259010,96.690323 96.863167,95.140274 96.311958,93.393822 
	C95.755653,94.487846 95.199341,95.581871 93.925629,96.841812 
	C91.821495,97.735352 89.156929,98.701004 89.241409,99.154579 
	C90.351120,105.111839 87.451416,108.203537 82.650337,111.165146 
	C79.410477,113.163696 78.128525,113.170601 77.060989,109.442245 
	C78.487679,107.743912 79.773987,106.345032 81.231247,104.760231 
	C82.329132,105.971207 83.216187,106.949623 85.104614,109.032555 
	C85.104614,106.239273 85.240372,104.834625 85.077866,103.465378 
	C84.673035,100.054413 83.075325,96.891838 84.848518,93.182846 
	C86.736977,89.232750 87.405479,84.947350 83.800728,81.080002 
	C83.207451,80.443504 83.715729,78.186134 84.381760,77.079048 
	C86.558022,73.461571 89.042526,70.029533 92.310295,65.190834 
	C84.767769,68.689865 82.937218,62.481247 79.674599,60.320465 
	C79.360344,57.918610 79.102852,55.950558 78.900169,53.619987 
	C79.299004,52.415386 79.643021,51.573303 80.259888,50.802994 
	C80.718636,50.903320 80.904549,50.931870 81.102142,51.318367 
	C83.651779,54.917141 86.189728,58.157974 88.727676,61.398808 
	C89.266792,61.047474 89.805901,60.696136 90.345009,60.344799 
	C89.987404,59.231613 89.629799,58.118423 89.475487,56.579483 
	C89.750076,55.847389 89.821381,55.541046 90.247383,55.427780 
	C91.384743,55.536884 92.167404,55.452915 93.044647,55.411545 
	C93.139221,55.454144 93.236603,55.424370 93.236603,55.424370 
	C93.236603,55.424370 92.927010,55.445415 92.885643,55.047794 
	C92.780655,54.391361 92.717041,54.132553 92.971146,53.762779 
	C94.090050,52.428776 94.891228,51.205742 95.824966,49.659439 
	C96.961479,48.532536 97.965424,47.728905 99.146759,47.180168 
	C103.511841,48.303062 107.699547,49.171059 112.219917,50.195808 
	C116.392395,55.714428 116.570282,61.752171 115.493370,67.800385 
	C113.567078,66.608681 111.950562,65.580925 110.347115,64.457306 
	C110.360184,64.361435 110.182343,64.437706 110.359413,64.088844 
	C109.181839,62.183067 107.274033,59.080223 106.567009,59.333210 
	C103.267822,60.513725 100.300194,62.620823 96.416534,64.855492 
	C100.050056,68.053528 102.361664,71.616302 105.261559,72.186333 
	C107.867279,72.698532 111.119095,69.923828 113.209381,68.990425 
	C113.486008,72.549316 113.736542,75.772614 113.957291,79.275490 
	C113.815590,80.094315 113.703674,80.633575 113.126282,81.128639 
	C112.001602,81.059166 111.319176,80.911919 110.687668,81.032127 
	C108.983406,81.356514 107.300827,81.794807 105.609650,82.187912 
	C106.145584,83.735626 106.848511,85.248703 107.178368,86.839157 
	C107.674850,89.233055 107.910362,91.681084 108.059143,92.722519 
	C108.997536,95.270622 109.499374,96.633324 109.623940,97.994873 
	C108.492172,97.995918 107.737686,97.998131 106.673317,97.862488 
	C105.242729,98.150200 104.122025,98.575768 102.666122,99.002075 
	C101.554588,99.320335 100.778252,99.637856 99.805222,100.142250 
	C99.977371,100.616852 100.346214,100.904572 100.715065,101.192291 
z"/>
<path fill="#EEF6F8" opacity="1.000000" stroke="none" 
	d="
M69.325089,41.006947 
	C71.214432,41.013550 73.103783,41.020153 75.478699,41.252525 
	C76.261017,41.697075 76.557747,41.915859 76.767220,42.427887 
	C76.040779,43.412815 74.857681,44.102036 74.854546,44.796585 
	C74.839188,48.195255 75.138252,51.595352 75.216522,55.419846 
	C75.786522,58.475060 75.617928,62.319801 77.309517,63.501305 
	C81.852211,66.674194 81.557259,70.382339 80.415550,74.708740 
	C79.876930,76.749802 79.365517,78.798042 78.918839,80.921875 
	C78.995888,81.000725 78.844986,80.843109 78.549919,81.100281 
	C77.558159,88.405434 76.895920,95.457092 76.144394,102.499222 
	C75.910194,104.693718 75.434509,106.862457 74.800903,108.844437 
	C73.964691,108.845146 72.894814,109.064461 72.901848,109.240791 
	C73.145866,115.354996 70.155884,114.173409 66.627785,111.712402 
	C64.190361,108.367279 61.229649,105.486336 64.154205,101.136688 
	C64.025459,101.009079 64.267998,101.278351 64.570869,101.140945 
	C65.272011,100.500198 65.670273,99.996841 66.277359,99.229584 
	C65.315994,99.086708 64.682655,98.992577 63.886986,98.603455 
	C61.153793,94.203072 58.582939,90.097679 56.014435,85.732849 
	C55.939487,85.318665 55.862186,85.163925 55.819294,84.584465 
	C55.875462,82.770660 55.897221,81.381569 56.201569,79.992004 
	C56.644413,79.892471 56.804668,79.793411 57.349625,79.730392 
	C59.206318,79.403313 60.678314,79.040207 62.584869,78.569901 
	C60.067989,74.460068 54.763386,71.964363 57.550812,66.293488 
	C62.563416,65.877426 66.290825,63.296558 69.142471,58.731346 
	C74.182640,50.722794 74.138916,47.954815 69.077766,42.617924 
	C69.117310,41.861275 69.221199,41.434113 69.325089,41.006947 
z"/>
<path fill="#959BA2" opacity="1.000000" stroke="none" 
	d="
M115.803146,67.964333 
	C116.570282,61.752171 116.392395,55.714428 112.205750,49.822662 
	C110.473091,46.244827 110.973724,45.012398 114.770805,45.183453 
	C116.903526,45.279530 119.109909,43.740601 121.577225,42.920509 
	C122.065445,42.872520 122.259544,42.842316 122.453636,42.812107 
	C127.176888,45.270966 126.209686,49.971107 126.845070,54.025978 
	C127.168343,56.088985 127.502274,58.165230 127.593307,60.245907 
	C127.704613,62.789684 127.591568,65.345024 127.526741,67.894127 
	C127.484787,69.544273 127.355476,71.192200 126.848022,73.412415 
	C124.348305,77.360527 122.265884,80.737343 119.893112,83.925797 
	C118.348030,81.803749 117.093300,79.870071 115.926170,77.545891 
	C115.943573,74.091705 115.873360,71.028015 115.803146,67.964333 
M117.435890,61.889774 
	C117.519890,61.812981 117.603897,61.736191 117.687904,61.659405 
	C117.607735,61.578949 117.528847,61.436928 117.447037,61.435230 
	C117.364159,61.433506 117.278404,61.570530 117.435890,61.889774 
z"/>
<path fill="#111E3A" opacity="1.000000" stroke="none" 
	d="
M56.964924,79.694359 
	C56.804668,79.793411 56.644413,79.892471 55.859402,80.035065 
	C51.883492,82.116577 52.220272,83.742989 55.784885,85.009186 
	C55.862186,85.163925 55.939487,85.318665 55.760925,85.939117 
	C55.267426,88.283211 55.683578,90.713982 54.658581,91.927094 
	C52.394665,94.606506 53.975716,95.527946 55.953072,96.674362 
	C55.300564,97.546356 54.648056,98.418350 53.736702,99.649445 
	C53.270809,100.025078 53.063755,100.041611 52.513371,100.038605 
	C51.129631,100.664345 50.089226,101.309639 49.035759,101.958313 
	C49.022697,101.961678 49.000469,101.976959 48.576271,101.857742 
	C46.392818,101.986832 44.633564,102.235130 42.878937,102.078560 
	C42.879501,101.403778 42.875435,101.133881 42.925190,100.672943 
	C42.979008,100.481903 42.978096,100.084625 43.077076,99.792587 
	C41.786533,98.700630 40.397011,97.900719 39.028259,96.822632 
	C39.038593,96.358795 39.028156,96.173126 39.069942,95.944351 
	C39.122166,95.901230 39.223190,95.811012 39.391380,95.854843 
	C39.559570,95.898666 39.900185,95.968079 40.079361,95.899849 
	C40.332832,95.730011 40.490429,95.567703 40.467834,95.536690 
	C40.327335,95.343880 40.146446,95.180489 39.752079,95.031349 
	C39.525204,95.055351 39.071762,95.106247 39.085770,94.800247 
	C40.511822,93.746231 41.923874,92.998207 42.176430,92.864418 
	C42.532940,89.861618 42.761658,87.935204 43.265556,85.761414 
	C44.693993,80.343910 45.847248,75.173790 47.382065,69.995773 
	C49.537193,69.355820 51.310772,68.723763 53.051567,68.103386 
	C54.053722,70.357910 54.933567,72.337265 55.890919,74.490997 
	C53.471615,76.925568 53.471615,76.925568 56.964924,79.694359 
z"/>
<path fill="#90969F" opacity="1.000000" stroke="none" 
	d="
M89.272194,57.005238 
	C89.629799,58.118423 89.987404,59.231613 90.345009,60.344799 
	C89.805901,60.696136 89.266792,61.047474 88.727676,61.398808 
	C86.189728,58.157974 83.651779,54.917141 81.329330,51.164555 
	C82.677704,50.652802 83.810570,50.652802 85.174194,50.652802 
	C84.420059,48.820107 83.723618,47.127628 83.318344,45.237106 
	C85.738022,42.351662 87.866524,39.664253 89.995026,36.976845 
	C90.393936,36.313633 90.679710,35.188114 91.209206,35.058537 
	C96.655174,33.725784 102.137627,32.540054 107.626534,31.392925 
	C107.832870,31.349802 108.208672,32.117558 108.753227,33.122429 
	C108.329994,35.840195 107.659035,37.942970 106.707413,39.935635 
	C105.668343,39.623562 104.909950,39.421600 103.938416,38.935814 
	C101.503899,38.153896 99.306786,37.706673 98.969383,41.429634 
	C99.557747,41.933109 100.055016,41.972202 100.564728,42.034859 
	C100.577171,42.058422 100.558144,42.060867 100.292801,42.401588 
	C99.674759,44.136627 99.322060,45.530949 98.969360,46.925270 
	C97.965424,47.728905 96.961479,48.532536 95.457108,49.664173 
	C93.309624,49.654716 91.662567,49.317249 89.956413,48.849197 
	C89.812263,48.673100 89.727203,48.627594 89.642143,48.582085 
	C89.754745,48.726562 89.867348,48.871044 90.013596,49.343502 
	C90.915977,51.072235 91.784698,52.472992 92.653419,53.873749 
	C92.717041,54.132553 92.780655,54.391361 92.903183,55.031693 
	C92.962090,55.413208 92.950066,55.368942 92.950066,55.368942 
	C92.167404,55.452915 91.384743,55.536884 90.210205,55.165310 
	C89.180031,53.607189 88.541733,52.504612 87.903442,51.402031 
	C87.333130,51.890644 86.762817,52.379257 86.192505,52.867870 
	C87.219070,54.246994 88.245628,55.626114 89.272194,57.005238 
z"/>
<path fill="#141D33" opacity="1.000000" stroke="none" 
	d="
M120.183472,84.114159 
	C122.265884,80.737343 124.348305,77.360527 126.774559,73.817879 
	C127.534676,73.719376 127.950966,73.786705 128.694000,74.288025 
	C128.286575,78.113846 127.552383,81.505684 126.504257,85.029602 
	C124.507195,87.133026 122.824074,89.104378 120.837509,91.058304 
	C119.998543,91.101631 119.463020,91.162384 118.927498,91.223137 
	C118.931274,91.410080 118.935051,91.597023 118.938835,91.783966 
	C119.548523,91.870018 120.158211,91.956070 120.835678,92.275215 
	C120.903465,92.508301 121.009087,92.982170 120.996658,93.230484 
	C120.984230,93.478790 120.986397,93.975830 120.991913,93.989212 
	C120.997437,94.002594 120.973900,93.983658 120.633499,93.976814 
	C119.196144,94.916969 118.099174,95.863968 116.761673,96.870270 
	C116.521149,96.929588 116.027374,96.970482 115.789200,96.783508 
	C114.977798,96.444435 114.404564,96.292336 113.831329,96.140228 
	C113.882790,96.809059 113.934258,97.477890 113.795364,98.369171 
	C112.746468,99.000977 111.887932,99.410332 110.761292,99.850159 
	C110.325577,99.815269 110.157974,99.749916 109.991394,99.403168 
	C109.995346,98.746521 109.998283,98.371277 110.001221,97.996033 
	C109.499374,96.633324 108.997536,95.270622 108.059143,92.722519 
	C107.910362,91.681084 107.674850,89.233055 107.178368,86.839157 
	C106.848511,85.248703 106.145584,83.735626 105.609650,82.187912 
	C107.300827,81.794807 108.983406,81.356514 110.687668,81.032127 
	C111.319176,80.911919 112.001602,81.059166 112.940750,81.527969 
	C113.220703,83.854591 113.220703,85.737701 113.220703,87.636497 
	C116.910347,88.622627 119.173912,87.556923 120.183472,84.114159 
z"/>
<path fill="#1B2236" opacity="1.000000" stroke="none" 
	d="
M42.990372,86.008774 
	C42.761658,87.935204 42.532940,89.861618 42.176430,92.864418 
	C41.923874,92.998207 40.511822,93.746231 39.104408,94.979874 
	C39.109043,95.465492 39.223190,95.811012 39.223190,95.811012 
	C39.223190,95.811012 39.122166,95.901230 38.784912,95.898766 
	C38.259830,95.854851 38.072002,95.813393 37.917984,95.501045 
	C37.027447,95.149750 36.103107,95.069351 34.910034,95.114517 
	C34.410236,95.762756 34.179173,96.285416 33.704735,96.869911 
	C33.296276,96.959518 33.131191,96.987289 32.860619,96.663116 
	C30.035467,92.009903 27.407129,87.645065 24.503014,83.472168 
	C24.038389,82.804550 22.338943,82.996307 21.210350,82.790771 
	C20.600334,78.988533 19.990318,75.186302 19.692205,71.109756 
	C20.453638,70.851868 20.903170,70.868301 21.828268,71.165634 
	C22.803949,72.268600 23.304062,73.090668 24.161554,73.930275 
	C24.757416,73.942490 24.995895,73.937164 25.561396,74.088692 
	C27.702974,77.809128 29.058044,81.722885 31.442692,84.852020 
	C34.793095,89.248421 36.697193,88.801460 39.266338,84.033157 
	C40.729164,84.725014 41.859768,85.366898 42.990372,86.008774 
z"/>
<path fill="#181F36" opacity="1.000000" stroke="none" 
	d="
M66.715858,112.040245 
	C70.155884,114.173409 73.145866,115.354996 72.901848,109.240791 
	C72.894814,109.064461 73.964691,108.845146 74.879303,109.128036 
	C75.790977,109.654030 76.355782,109.697868 76.920593,109.741699 
	C78.128525,113.170601 79.410477,113.163696 82.650337,111.165146 
	C87.451416,108.203537 90.351120,105.111839 89.241409,99.154579 
	C89.156929,98.701004 91.821495,97.735352 93.630142,97.012604 
	C93.366417,99.252014 92.570625,101.459587 92.015739,103.726143 
	C90.334663,110.592979 86.202042,115.569405 79.761299,118.093338 
	C74.076553,120.321030 69.171165,118.003273 65.293755,113.262810 
	C65.863922,112.566872 66.289886,112.303558 66.715858,112.040245 
z"/>
<path fill="#8F92A6" opacity="1.000000" stroke="none" 
	d="
M106.988075,40.045750 
	C107.659035,37.942970 108.329994,35.840195 109.001595,33.349922 
	C112.105469,34.275944 115.429420,35.244019 118.229012,37.032772 
	C119.903748,38.102821 120.757622,40.457592 122.217049,42.523502 
	C122.259544,42.842316 122.065445,42.872520 121.146286,42.969849 
	C116.801041,42.676456 113.164291,42.425163 109.571938,41.880898 
	C108.639381,41.739605 107.845596,40.682308 106.988075,40.045750 
z"/>
<path fill="#878D9C" opacity="1.000000" stroke="none" 
	d="
M21.218809,83.185059 
	C22.338943,82.996307 24.038389,82.804550 24.503014,83.472168 
	C27.407129,87.645065 30.035467,92.009903 32.585007,96.703064 
	C31.944841,97.353165 31.474792,97.611366 30.960308,98.209946 
	C30.575195,99.394592 30.234520,100.238853 29.893845,101.083122 
	C25.525684,95.980972 22.671783,90.129074 21.218809,83.185059 
z"/>
<path fill="#1B2235" opacity="1.000000" stroke="none" 
	d="
M56.292648,96.786743 
	C53.975716,95.527946 52.394665,94.606506 54.658581,91.927094 
	C55.683578,90.713982 55.267426,88.283211 55.758575,86.198563 
	C58.582939,90.097679 61.153793,94.203072 63.880875,99.003326 
	C64.114067,100.224907 64.191032,100.751633 64.267998,101.278351 
	C64.267998,101.278351 64.025459,101.009079 63.747715,101.055283 
	C62.367542,101.070908 61.265110,101.040329 60.162682,101.009750 
	C58.985863,99.639542 57.809044,98.269325 56.292648,96.786743 
z"/>
<path fill="#7D8287" opacity="1.000000" stroke="none" 
	d="
M126.818192,84.897522 
	C127.552383,81.505684 128.286575,78.113846 129.012787,74.300140 
	C129.730453,72.913788 130.456131,71.949310 131.730606,70.255424 
	C133.993805,75.921295 132.146713,80.297188 129.990936,84.845123 
	C128.427689,84.959053 127.622940,84.928291 126.818192,84.897522 
z"/>
<path fill="#8D95A1" opacity="1.000000" stroke="none" 
	d="
M126.504257,85.029602 
	C127.622940,84.928291 128.427689,84.959053 129.634491,85.005821 
	C128.922440,87.880730 127.808327,90.739647 126.024849,93.815933 
	C124.192085,94.000778 123.028687,93.968246 121.839920,93.694733 
	C121.635674,93.143600 121.367188,92.986404 121.009087,92.982170 
	C121.009087,92.982170 120.903465,92.508301 120.942047,92.038628 
	C121.034073,91.404549 121.087509,91.240135 121.140945,91.075722 
	C122.824074,89.104378 124.507195,87.133026 126.504257,85.029602 
z"/>
<path fill="#1F3142" opacity="1.000000" stroke="none" 
	d="
M89.613037,36.983078 
	C87.866524,39.664253 85.738022,42.351662 82.989349,45.180378 
	C82.167534,45.415577 81.965881,45.509464 81.855736,45.191822 
	C82.231758,43.608501 82.516266,42.436714 82.895821,40.873470 
	C80.602104,41.352299 78.728294,41.743473 76.854477,42.134644 
	C76.557747,41.915859 76.261017,41.697075 75.807922,41.241371 
	C77.739914,40.156536 79.777649,39.135109 81.930176,38.507164 
	C84.308960,37.813232 86.792908,37.479771 89.613037,36.983078 
z"/>
<path fill="#191C27" opacity="1.000000" stroke="none" 
	d="
M60.026089,101.328506 
	C61.265110,101.040329 62.367542,101.070908 63.876461,101.182892 
	C61.229649,105.486336 64.190361,108.367279 66.627785,111.712402 
	C66.289886,112.303558 65.863922,112.566872 65.205772,112.924103 
	C61.579449,109.987625 59.427650,106.401749 60.026089,101.328506 
z"/>
<path fill="#848999" opacity="1.000000" stroke="none" 
	d="
M111.962952,103.850098 
	C109.095802,107.433182 105.604202,106.802238 102.306137,101.623047 
	C105.111214,101.531166 107.579742,101.860512 110.183670,102.415314 
	C110.867035,103.043877 111.414993,103.446991 111.962952,103.850098 
z"/>
<path fill="#9BA4B5" opacity="1.000000" stroke="none" 
	d="
M121.865288,93.935715 
	C123.028687,93.968246 124.192085,94.000778 125.794388,94.085709 
	C124.960281,95.539490 123.687263,96.940880 122.153801,98.714020 
	C121.893364,99.085777 121.614067,99.299797 121.614067,99.299805 
	C120.707726,99.263039 119.801392,99.226273 118.312386,98.877609 
	C116.813904,98.386017 115.898094,98.206337 115.098358,97.800644 
	C115.485420,97.373253 115.756401,97.171867 116.027374,96.970490 
	C116.027374,96.970482 116.521149,96.929588 117.088608,96.932922 
	C118.762009,95.952049 119.867958,94.967857 120.973900,93.983658 
	C120.973900,93.983658 120.997437,94.002594 121.212555,93.998642 
	C121.427666,93.994682 121.865288,93.935722 121.865288,93.935715 
z"/>
<path fill="#283142" opacity="1.000000" stroke="none" 
	d="
M30.077232,101.304573 
	C30.234520,100.238853 30.575195,99.394592 31.355970,98.342361 
	C32.885181,98.213394 33.974293,98.292397 35.064743,98.626175 
	C35.057381,99.219803 35.048679,99.558655 34.779930,99.994499 
	C34.377689,100.145988 34.199543,100.166580 34.105431,100.266411 
	C34.038097,100.337822 34.072704,100.628899 34.079952,100.629585 
	C35.392654,100.753250 36.706989,100.859619 37.981750,101.006180 
	C37.942238,101.045753 37.919060,101.155174 37.712616,101.374893 
	C36.661629,102.069641 35.817089,102.544662 34.570793,103.019981 
	C33.634102,103.049843 33.099167,103.079414 32.564232,103.108986 
	C31.796362,102.581329 31.028490,102.053673 30.077232,101.304573 
z"/>
<path fill="#11162C" opacity="1.000000" stroke="none" 
	d="
M110.048264,102.189850 
	C107.579742,101.860512 105.111214,101.531166 102.237129,101.270485 
	C101.654709,101.302567 101.477859,101.265976 101.110367,100.942421 
	C100.613800,100.422096 100.307854,100.188736 100.001915,99.955383 
	C100.778252,99.637856 101.554588,99.320335 102.889618,99.264542 
	C104.626610,99.017624 105.804909,98.508987 106.983200,98.000343 
	C107.737686,97.998131 108.492172,97.995918 109.623940,97.994873 
	C109.998283,98.371277 109.995346,98.746521 109.674576,99.447464 
	C109.018066,99.999161 108.679382,100.225151 108.340698,100.451141 
	C108.841103,100.718430 109.341499,100.985718 109.866890,101.493073 
	C109.891884,101.733147 110.048264,102.189850 110.048264,102.189850 
z"/>
<path fill="#505666" opacity="1.000000" stroke="none" 
	d="
M110.183670,102.415314 
	C110.048264,102.189850 109.891884,101.733147 110.276817,101.404655 
	C111.495476,101.112862 112.329201,101.149567 113.414116,101.430679 
	C114.853790,101.745789 116.042267,101.816498 117.230751,101.887207 
	C117.230751,101.887207 117.141396,101.934441 117.016510,102.221939 
	C116.612480,103.156868 116.333344,103.804291 116.054207,104.451714 
	C114.906029,104.285751 113.757858,104.119789 112.286316,103.901962 
	C111.414993,103.446991 110.867035,103.043877 110.183670,102.415314 
z"/>
<path fill="#4B5364" opacity="1.000000" stroke="none" 
	d="
M34.972546,103.019691 
	C35.817089,102.544662 36.661629,102.069641 38.125000,101.311058 
	C40.119678,100.972992 41.495525,100.918480 42.871372,100.863976 
	C42.875435,101.133881 42.879501,101.403778 42.585300,102.242599 
	C40.521069,103.232513 38.755096,103.653511 37.052948,104.247803 
	C37.116764,104.421104 37.088707,104.789383 37.088707,104.789383 
	C36.482342,104.726418 35.875973,104.663445 35.183182,104.230179 
	C35.188454,103.774475 35.372707,103.643074 35.356842,103.611153 
	C35.252876,103.402000 35.105644,103.214355 34.972546,103.019691 
z"/>
<path fill="#151C2D" opacity="1.000000" stroke="none" 
	d="
M69.258194,40.660175 
	C69.221199,41.434113 69.117310,41.861275 68.588692,42.689659 
	C67.843002,43.165493 67.522049,43.240116 66.902664,43.191898 
	C65.729660,41.622799 64.855064,40.176540 63.980469,38.730282 
	C65.071953,38.750896 66.163437,38.771507 67.653549,38.695156 
	C68.431892,39.169933 68.811600,39.741669 69.258194,40.660175 
z"/>
<path fill="#060A16" opacity="1.000000" stroke="none" 
	d="
M37.536545,104.884903 
	C37.088707,104.789383 37.116764,104.421104 37.513081,104.229965 
	C41.535656,103.798264 45.161919,103.557693 48.819901,103.681946 
	C48.886684,104.288383 48.921741,104.529991 48.956802,104.771606 
	C45.299328,104.841209 41.641853,104.910812 37.536545,104.884903 
z"/>
<path fill="#03091E" opacity="1.000000" stroke="none" 
	d="
M114.982277,98.026657 
	C115.898094,98.206337 116.813904,98.386017 117.977028,98.817375 
	C118.224335,99.069054 118.168175,99.565376 117.779907,99.789581 
	C115.270889,99.949097 113.150146,99.884399 111.029396,99.819687 
	C111.887932,99.410332 112.746468,99.000977 114.047592,98.364655 
	C114.654213,98.100693 114.818245,98.063675 114.982277,98.026657 
z"/>
<path fill="#8A91A5" opacity="1.000000" stroke="none" 
	d="
M110.761292,99.850159 
	C113.150146,99.884399 115.270889,99.949097 117.850533,100.029137 
	C118.493980,100.236404 118.678535,100.428329 118.863098,100.620255 
	C118.490501,100.808578 118.117905,100.996902 117.054863,101.071312 
	C115.297256,101.033684 114.230087,101.109970 113.162926,101.186264 
	C112.329201,101.149567 111.495476,101.112862 110.251823,101.164581 
	C109.341499,100.985718 108.841103,100.718430 108.340698,100.451141 
	C108.679382,100.225151 109.018066,99.999161 109.673569,99.728867 
	C110.157974,99.749916 110.325577,99.815269 110.761292,99.850159 
z"/>
<path fill="#1B2530" opacity="1.000000" stroke="none" 
	d="
M49.273804,104.730179 
	C48.921741,104.529991 48.886684,104.288383 48.933086,103.461609 
	C49.294659,102.572319 49.289967,102.272484 49.000469,101.976959 
	C49.000469,101.976959 49.022697,101.961678 49.421516,102.067245 
	C50.879059,102.114189 51.937786,102.055573 53.065964,102.065269 
	C53.135414,102.133583 53.272739,102.271797 53.272739,102.271797 
	C52.045429,103.077446 50.818119,103.883095 49.273804,104.730179 
z"/>
<path fill="#2C3445" opacity="1.000000" stroke="none" 
	d="
M113.414116,101.430679 
	C114.230087,101.109970 115.297256,101.033684 116.766800,100.980057 
	C117.169182,101.002724 117.183952,101.446381 117.207352,101.666794 
	C116.042267,101.816498 114.853790,101.745789 113.414116,101.430679 
z"/>
<path fill="#242935" opacity="1.000000" stroke="none" 
	d="
M116.385368,104.405304 
	C116.333344,103.804291 116.612480,103.156868 117.009125,102.171951 
	C117.617020,102.364784 118.107399,102.895119 118.597778,103.425461 
	C117.970695,103.736603 117.343613,104.047752 116.385368,104.405304 
z"/>
<path fill="#1B2530" opacity="1.000000" stroke="none" 
	d="
M52.856705,100.058151 
	C53.063755,100.041611 53.270809,100.025078 53.788769,99.988197 
	C53.991032,100.649536 53.882385,101.331223 53.523239,102.142357 
	C53.272739,102.271797 53.135414,102.133583 52.957443,101.753555 
	C52.805218,100.935074 52.830959,100.496613 52.856705,100.058151 
z"/>
<path fill="#121927" opacity="1.000000" stroke="none" 
	d="
M34.570793,103.019981 
	C35.105644,103.214355 35.252876,103.402000 35.356842,103.611153 
	C35.372707,103.643074 35.188454,103.774475 34.967735,104.002396 
	C34.202900,103.987259 33.567081,103.829597 32.747749,103.390457 
	C33.099167,103.079414 33.634102,103.049843 34.570793,103.019981 
z"/>
<path fill="#848999" opacity="1.000000" stroke="none" 
	d="
M99.805222,100.142258 
	C100.307854,100.188736 100.613800,100.422096 100.839485,100.939774 
	C100.759232,101.224106 100.708710,101.240257 100.711884,101.216278 
	C100.346214,100.904572 99.977371,100.616852 99.805222,100.142258 
z"/>
<path fill="#9BA4B5" opacity="1.000000" stroke="none" 
	d="
M122.029037,98.973770 
	C122.331276,99.343483 122.497841,99.825203 122.664406,100.306931 
	C122.361176,100.137329 122.057945,99.967720 121.684387,99.548950 
	C121.614067,99.299797 121.893364,99.085777 122.029037,98.973770 
z"/>
<path fill="#E4E5E6" opacity="1.000000" stroke="none" 
	d="
M131.472198,51.450623 
	C131.525055,51.418854 131.419357,51.482395 131.472198,51.450623 
z"/>
<path fill="#9197A0" opacity="1.000000" stroke="none" 
	d="
M63.933380,38.469311 
	C64.855064,40.176540 65.729660,41.622799 66.946342,43.544937 
	C68.141632,45.682156 68.994827,47.343498 69.486450,49.012222 
	C68.073349,50.219254 67.013565,51.411800 65.972694,52.620625 
	C65.009499,53.739243 64.066536,54.875278 62.951576,55.651978 
	C59.033092,53.919128 55.898151,51.964649 55.656242,47.260494 
	C55.449738,46.974785 55.121399,46.878162 54.465767,46.892685 
	C53.081108,46.337337 52.023739,45.670837 51.052452,44.687447 
	C51.360897,43.780666 51.583267,43.190781 52.027584,42.012127 
	C48.706600,43.075176 44.991585,44.723389 47.165615,38.827900 
	C43.638756,39.753773 41.083908,44.740623 37.444828,39.918724 
	C38.591614,38.760391 39.590134,37.841564 40.979431,36.563152 
	C39.672314,36.309307 38.783283,36.136658 37.826805,35.767105 
	C37.759357,35.570206 37.970905,35.211700 37.970905,35.211700 
	C38.104923,34.576328 38.238945,33.940956 38.825714,33.395615 
	C39.798927,33.194763 40.319397,32.903877 40.839863,32.612991 
	C43.626858,32.237995 46.413849,31.863001 49.657433,31.619005 
	C52.416924,32.359528 54.719830,32.969051 57.022732,33.578575 
	C58.662384,34.564171 60.302036,35.549767 62.105896,36.974075 
	C62.428913,37.687660 62.660774,37.780796 62.965683,37.692188 
	C63.272552,37.864239 63.579422,38.036289 63.933380,38.469311 
z"/>
<path fill="#151A23" opacity="1.000000" stroke="none" 
	d="
M25.234375,73.931847 
	C24.995895,73.937164 24.757416,73.942490 24.221998,73.535873 
	C23.813190,72.077507 23.701319,71.031082 23.589447,69.984650 
	C22.449055,59.978310 23.096241,50.274429 29.015915,41.224453 
	C30.011040,41.105068 30.422312,41.125095 30.693390,41.423630 
	C31.030045,42.280556 31.506891,42.858971 32.108128,43.577385 
	C32.430424,43.886635 32.659538,43.974216 32.650284,44.196545 
	C27.452864,45.381229 26.614040,49.563843 26.221455,53.328358 
	C25.509401,60.156242 25.523428,67.059853 25.234375,73.931847 
z"/>
<path fill="#EBEDF0" opacity="1.000000" stroke="none" 
	d="
M56.951988,33.254395 
	C54.719830,32.969051 52.416924,32.359528 49.956177,31.419313 
	C51.153870,30.636267 52.509415,30.183910 53.940880,29.364502 
	C54.457378,28.997932 54.897961,28.998419 55.669136,29.000317 
	C56.293571,30.311226 56.587410,31.620722 56.951988,33.254395 
z"/>
<path fill="#EBEDF0" opacity="1.000000" stroke="none" 
	d="
M30.833584,41.145119 
	C30.422312,41.125095 30.011040,41.105068 29.298805,41.013878 
	C30.049702,39.652519 31.101559,38.362328 32.537945,37.331734 
	C33.239052,37.836990 33.555630,38.082645 33.787697,38.515575 
	C33.536175,39.077679 33.369164,39.452503 32.875267,39.935398 
	C31.976780,40.410686 31.405182,40.777905 30.833584,41.145119 
z"/>
<path fill="#232B32" opacity="1.000000" stroke="none" 
	d="
M33.872208,38.328297 
	C33.555630,38.082645 33.239052,37.836990 32.867004,37.290348 
	C34.291496,36.390064 35.771458,35.790775 37.611160,35.201591 
	C37.970905,35.211700 37.759357,35.570206 37.629936,36.041401 
	C36.291080,37.117828 35.081646,37.723064 33.872208,38.328297 
z"/>
<path fill="#EBEDF0" opacity="1.000000" stroke="none" 
	d="
M23.348759,70.006943 
	C23.701319,71.031082 23.813190,72.077507 23.864618,73.518341 
	C23.304062,73.090668 22.803949,72.268600 22.166351,71.171448 
	C22.388599,70.607323 22.748335,70.318283 23.348759,70.006943 
z"/>
<path fill="#EBEDF0" opacity="1.000000" stroke="none" 
	d="
M40.668865,32.453629 
	C40.319397,32.903877 39.798927,33.194763 39.131809,33.261093 
	C39.489395,32.789112 39.993629,32.541687 40.668865,32.453629 
z"/>
<path fill="#EBEDF0" opacity="1.000000" stroke="none" 
	d="
M62.866051,37.548523 
	C62.660774,37.780796 62.428913,37.687660 62.230225,37.215542 
	C62.413033,37.101460 62.605057,37.230316 62.866051,37.548523 
z"/>
<path fill="#EBEDF0" opacity="1.000000" stroke="none" 
	d="
M63.530228,35.548813 
	C63.478336,35.579342 63.582119,35.518280 63.530228,35.548813 
z"/>
<path fill="#5EA1CE" opacity="1.000000" stroke="none" 
	d="
M77.060989,109.442245 
	C76.355782,109.697868 75.790977,109.654030 75.147766,109.326591 
	C75.434509,106.862457 75.910194,104.693718 76.144394,102.499222 
	C76.895920,95.457092 77.558159,88.405434 78.607086,81.571548 
	C79.109337,92.999168 79.109337,92.999168 83.322472,94.597641 
	C82.869995,90.856216 82.715782,87.441269 81.933342,84.176903 
	C81.625450,82.892403 79.914047,81.944313 78.841782,80.843025 
	C79.365517,78.798042 79.876930,76.749802 80.415550,74.708740 
	C81.557259,70.382339 81.852211,66.674194 77.309517,63.501305 
	C75.617928,62.319801 75.786522,58.475060 75.519241,55.380287 
	C76.902855,54.604721 77.874100,54.293617 78.845352,53.982506 
	C79.102852,55.950558 79.360344,57.918610 79.674599,60.320465 
	C82.937218,62.481247 84.767769,68.689865 92.310295,65.190834 
	C89.042526,70.029533 86.558022,73.461571 84.381760,77.079048 
	C83.715729,78.186134 83.207451,80.443504 83.800728,81.080002 
	C87.405479,84.947350 86.736977,89.232750 84.848518,93.182846 
	C83.075325,96.891838 84.673035,100.054413 85.077866,103.465378 
	C85.240372,104.834625 85.104614,106.239273 85.104614,109.032555 
	C83.216187,106.949623 82.329132,105.971207 81.231247,104.760231 
	C79.773987,106.345032 78.487679,107.743912 77.060989,109.442245 
z"/>
<path fill="#111B32" opacity="1.000000" stroke="none" 
	d="
M115.493370,67.800385 
	C115.873360,71.028015 115.943573,74.091705 115.663589,77.618073 
	C114.871300,78.385811 114.429192,78.690865 113.987076,78.995911 
	C113.736542,75.772614 113.486008,72.549316 113.209381,68.990425 
	C111.119095,69.923828 107.867279,72.698532 105.261559,72.186333 
	C102.361664,71.616302 100.050056,68.053528 96.416534,64.855492 
	C100.300194,62.620823 103.267822,60.513725 106.567009,59.333210 
	C107.274033,59.080223 109.181839,62.183067 110.046112,64.012459 
	C103.458687,61.934441 103.458687,61.934441 100.615219,66.045647 
	C103.867104,66.340492 106.687202,66.655411 109.514648,66.749451 
	C109.763153,66.757721 110.059776,65.319527 110.334045,64.553169 
	C111.950562,65.580925 113.567078,66.608681 115.493370,67.800385 
z"/>
<path fill="#11182B" opacity="1.000000" stroke="none" 
	d="
M106.707413,39.935635 
	C107.845596,40.682308 108.639381,41.739605 109.571938,41.880898 
	C113.164291,42.425163 116.801041,42.676456 120.852173,42.987633 
	C119.109909,43.740601 116.903526,45.279530 114.770805,45.183453 
	C110.973724,45.012398 110.473091,46.244827 111.873077,49.665913 
	C107.699547,49.171059 103.511841,48.303062 99.146751,47.180168 
	C99.322060,45.530949 99.674759,44.136627 100.667725,42.624050 
	C102.456558,42.440235 103.605110,42.374676 104.753662,42.309120 
	C104.552956,41.279293 104.352257,40.249470 104.151550,39.219643 
	C104.909950,39.421600 105.668343,39.623562 106.707413,39.935635 
z"/>
<path fill="#72A0C0" opacity="1.000000" stroke="none" 
	d="
M78.900169,53.619987 
	C77.874100,54.293617 76.902855,54.604721 75.628891,54.955383 
	C75.138252,51.595352 74.839188,48.195255 74.854546,44.796585 
	C74.857681,44.102036 76.040779,43.412815 76.767220,42.427891 
	C78.728294,41.743473 80.602104,41.352299 82.895821,40.873470 
	C82.516266,42.436714 82.231758,43.608501 81.719147,45.419617 
	C80.989708,47.616371 80.488373,49.173794 79.987038,50.731220 
	C79.643021,51.573303 79.299004,52.415386 78.900169,53.619987 
z"/>
<path fill="#898E9A" opacity="1.000000" stroke="none" 
	d="
M113.957291,79.275482 
	C114.429192,78.690865 114.871300,78.385811 115.575989,78.008575 
	C117.093300,79.870071 118.348030,81.803749 119.893112,83.925797 
	C119.173912,87.556923 116.910347,88.622627 113.220703,87.636497 
	C113.220703,85.737701 113.220703,83.854591 113.406235,81.572159 
	C113.703674,80.633575 113.815590,80.094315 113.957291,79.275482 
z"/>
<path fill="#8A929D" opacity="1.000000" stroke="none" 
	d="
M80.259888,50.802994 
	C80.488373,49.173794 80.989708,47.616371 81.627632,45.831150 
	C81.965881,45.509464 82.167534,45.415577 82.698181,45.378418 
	C83.723618,47.127628 84.420059,48.820107 85.174194,50.652802 
	C83.810570,50.652802 82.677704,50.652802 81.317642,50.806610 
	C80.904549,50.931870 80.718636,50.903320 80.259888,50.802994 
z"/>
<path fill="#8A929D" opacity="1.000000" stroke="none" 
	d="
M90.015503,48.979786 
	C91.662567,49.317249 93.309624,49.654716 95.324547,49.987442 
	C94.891228,51.205742 94.090050,52.428776 92.971146,53.762779 
	C91.784698,52.472992 90.915977,51.072235 90.023514,49.335602 
	C89.999779,48.999722 90.015503,48.979786 90.015503,48.979786 
z"/>
<path fill="#8A929D" opacity="1.000000" stroke="none" 
	d="
M89.475487,56.579483 
	C88.245628,55.626114 87.219070,54.246994 86.192505,52.867870 
	C86.762817,52.379257 87.333130,51.890644 87.903442,51.402031 
	C88.541733,52.504612 89.180031,53.607189 89.855499,54.972237 
	C89.821381,55.541046 89.750076,55.847389 89.475487,56.579483 
z"/>
<path fill="#141D33" opacity="1.000000" stroke="none" 
	d="
M106.673317,97.862488 
	C105.804909,98.508987 104.626610,99.017624 103.224808,99.263794 
	C104.122025,98.575768 105.242729,98.150200 106.673317,97.862488 
z"/>
<path fill="#8A929D" opacity="1.000000" stroke="none" 
	d="
M93.044647,55.411545 
	C92.950066,55.368942 92.962090,55.413208 92.944550,55.429314 
	C92.927010,55.445415 93.236603,55.424370 93.236603,55.424370 
	C93.236603,55.424370 93.139221,55.454144 93.044647,55.411545 
z"/>
<path fill="#111A2F" opacity="1.000000" stroke="none" 
	d="
M57.349625,79.730392 
	C53.471615,76.925568 53.471615,76.925568 55.890919,74.490997 
	C54.933567,72.337265 54.053722,70.357910 53.051567,68.103386 
	C51.310772,68.723763 49.537193,69.355820 46.981884,69.994202 
	C42.427635,69.656441 38.655117,69.312363 34.923813,68.607925 
	C34.823853,64.487190 37.358425,60.170406 33.551090,58.141483 
	C34.165688,56.189857 34.590099,54.842148 34.949787,53.699963 
	C35.860218,53.699963 36.819382,53.699963 37.939026,53.963791 
	C38.426086,54.589691 39.088028,55.199257 39.030182,55.277637 
	C37.588348,57.231396 35.437759,59.581207 38.262810,61.380444 
	C39.885635,62.414005 42.764946,61.286560 45.030235,61.549236 
	C47.607674,61.848110 50.491917,62.021114 52.597370,63.306255 
	C56.156113,65.478470 58.908726,65.022041 61.380325,60.928108 
	C63.409603,59.836201 65.097816,58.717815 66.952835,57.891529 
	C67.712296,58.452911 68.304962,58.722187 68.897621,58.991463 
	C66.290825,63.296558 62.563416,65.877426 57.550812,66.293488 
	C54.763386,71.964363 60.067989,74.460068 62.584869,78.569901 
	C60.678314,79.040207 59.206318,79.403313 57.349625,79.730392 
M50.349117,64.760162 
	C46.618961,61.362080 43.779255,63.231495 40.996136,65.435661 
	C41.108929,66.079468 41.221722,66.723274 41.334515,67.367088 
	C44.383060,66.744812 47.431606,66.122543 50.349117,64.760162 
z"/>
<path fill="#11141F" opacity="1.000000" stroke="none" 
	d="
M69.142471,58.731346 
	C68.304962,58.722187 67.712296,58.452911 67.020721,57.580898 
	C67.401634,56.035965 67.881454,55.093765 68.545425,54.012146 
	C68.908279,53.608089 68.993721,53.316162 69.200157,52.715401 
	C69.558937,51.290852 69.703484,50.147846 69.848022,49.004841 
	C68.994827,47.343498 68.141632,45.682156 67.244766,43.667778 
	C67.522049,43.240116 67.843002,43.165493 68.653030,43.019142 
	C74.138916,47.954815 74.182640,50.722794 69.142471,58.731346 
z"/>
<path fill="#1B2235" opacity="1.000000" stroke="none" 
	d="
M55.819294,84.584465 
	C52.220272,83.742989 51.883492,82.116577 55.576813,80.035538 
	C55.897221,81.381569 55.875462,82.770660 55.819294,84.584465 
z"/>
<path fill="#191C27" opacity="1.000000" stroke="none" 
	d="
M64.570869,101.140945 
	C64.191032,100.751633 64.114067,100.224907 64.043213,99.298325 
	C64.682655,98.992577 65.315994,99.086708 66.277359,99.229584 
	C65.670273,99.996841 65.272011,100.500198 64.570869,101.140945 
z"/>
<path fill="#0E1C3B" opacity="1.000000" stroke="none" 
	d="
M117.314896,61.768280 
	C117.278404,61.570530 117.364159,61.433506 117.447037,61.435230 
	C117.528847,61.436928 117.607735,61.578949 117.687904,61.659401 
	C117.603897,61.736191 117.519890,61.812981 117.314896,61.768280 
z"/>
<path fill="#111E38" opacity="1.000000" stroke="none" 
	d="
M34.882603,68.968277 
	C38.655117,69.312363 42.427635,69.656441 46.600327,70.002090 
	C45.847248,75.173790 44.693993,80.343910 43.265556,85.761406 
	C41.859768,85.366898 40.729164,84.725014 39.300720,83.714371 
	C38.955547,82.920746 38.908211,82.495903 39.107872,81.883026 
	C38.799770,81.100800 38.244678,80.506607 37.717537,79.601761 
	C35.505245,76.206802 34.938515,72.658371 34.882603,68.968277 
z"/>
<path fill="#040D22" opacity="1.000000" stroke="none" 
	d="
M35.039978,99.897491 
	C35.048679,99.558655 35.057381,99.219803 35.447716,98.597519 
	C36.409084,97.879356 36.988815,97.444633 37.799320,97.093300 
	C38.355659,97.148354 38.681458,97.123062 39.007488,97.100800 
	C40.397011,97.900719 41.786533,98.700630 42.667976,99.727585 
	C40.785381,100.028862 39.410858,100.103104 37.666382,100.105789 
	C36.544273,99.988647 35.792126,99.943069 35.039978,99.897491 
z"/>
<path fill="#848C9B" opacity="1.000000" stroke="none" 
	d="
M48.576271,101.857742 
	C49.289967,102.272484 49.294659,102.572319 48.901363,103.096786 
	C45.161919,103.557693 41.535656,103.798264 37.449265,104.056671 
	C38.755096,103.653511 40.521069,103.232513 42.580673,102.647476 
	C44.633564,102.235130 46.392818,101.986832 48.576271,101.857742 
z"/>
<path fill="#556374" opacity="1.000000" stroke="none" 
	d="
M52.513367,100.038605 
	C52.830959,100.496613 52.805218,100.935074 52.887993,101.685242 
	C51.937786,102.055573 50.879059,102.114189 49.434578,102.063873 
	C50.089226,101.309639 51.129631,100.664345 52.513367,100.038605 
z"/>
<path fill="#949FB3" opacity="1.000000" stroke="none" 
	d="
M38.036339,100.177338 
	C39.410858,100.103104 40.785381,100.028862 42.569000,100.019623 
	C42.978096,100.084625 42.979008,100.481903 42.925190,100.672943 
	C41.495525,100.918480 40.119678,100.972992 38.331444,101.091339 
	C37.919060,101.155174 37.942238,101.045753 37.985035,100.808884 
	C38.027832,100.572021 38.036339,100.177338 38.036339,100.177338 
z"/>
<path fill="#3D485E" opacity="1.000000" stroke="none" 
	d="
M39.028259,96.822632 
	C38.681458,97.123062 38.355659,97.148354 37.636795,97.062271 
	C37.243500,96.947853 37.072563,96.664513 37.033390,96.488937 
	C36.994217,96.313354 36.984428,95.947144 37.208427,95.898537 
	C37.432430,95.849930 37.884178,95.771942 37.884178,95.771942 
	C38.072002,95.813393 38.259830,95.854851 38.732689,95.941879 
	C39.028156,96.173126 39.038593,96.358795 39.028259,96.822632 
z"/>
<path fill="#00051D" opacity="1.000000" stroke="none" 
	d="
M39.391380,95.854843 
	C39.223190,95.811012 39.109043,95.465492 39.090401,95.285873 
	C39.071762,95.106247 39.525204,95.055351 39.738045,95.271957 
	C39.950886,95.488564 39.900185,95.968079 39.900185,95.968079 
	C39.900185,95.968079 39.559570,95.898666 39.391380,95.854843 
z"/>
<path fill="#1B2236" opacity="1.000000" stroke="none" 
	d="
M40.079361,95.899849 
	C39.900185,95.968079 39.950886,95.488564 39.964920,95.247955 
	C40.146446,95.180489 40.327335,95.343880 40.467834,95.536690 
	C40.490429,95.567703 40.332832,95.730011 40.079361,95.899849 
z"/>
<path fill="#9096A0" opacity="1.000000" stroke="none" 
	d="
M103.938416,38.935814 
	C104.352257,40.249470 104.552956,41.279293 104.753662,42.309120 
	C103.605110,42.374676 102.456558,42.440235 100.933075,42.283333 
	C100.558144,42.060867 100.577171,42.058422 100.371284,41.738182 
	C99.736366,41.267048 99.307327,41.116150 98.878296,40.965248 
	C99.306786,37.706673 101.503899,38.153896 103.938416,38.935814 
z"/>
<path fill="#11182B" opacity="1.000000" stroke="none" 
	d="
M98.969383,41.429634 
	C99.307327,41.116150 99.736366,41.267048 100.358841,41.714622 
	C100.055016,41.972202 99.557747,41.933109 98.969383,41.429634 
z"/>
<path fill="#8A929D" opacity="1.000000" stroke="none" 
	d="
M89.989868,49.007622 
	C89.867348,48.871044 89.754745,48.726562 89.642143,48.582085 
	C89.727203,48.627594 89.812263,48.673100 89.956413,48.849197 
	C90.015503,48.979786 89.999779,48.999722 89.989868,49.007622 
z"/>
<path fill="#282D47" opacity="1.000000" stroke="none" 
	d="
M120.633499,93.976814 
	C119.867958,94.967857 118.762009,95.952049 117.329132,96.873604 
	C118.099174,95.863968 119.196144,94.916969 120.633499,93.976814 
z"/>
<path fill="#6A738B" opacity="1.000000" stroke="none" 
	d="
M115.098358,97.800644 
	C114.818245,98.063675 114.654213,98.100693 114.237953,98.142212 
	C113.934258,97.477890 113.882790,96.809059 113.831329,96.140228 
	C114.404564,96.292336 114.977798,96.444435 115.789207,96.783516 
	C115.756401,97.171867 115.485420,97.373253 115.098358,97.800644 
z"/>
<path fill="#282D47" opacity="1.000000" stroke="none" 
	d="
M120.837509,91.058304 
	C121.087509,91.240135 121.034073,91.404549 120.874268,91.805542 
	C120.158211,91.956070 119.548523,91.870018 118.938835,91.783966 
	C118.935051,91.597023 118.931274,91.410080 118.927498,91.223137 
	C119.463020,91.162384 119.998543,91.101631 120.837509,91.058304 
z"/>
<path fill="#282D47" opacity="1.000000" stroke="none" 
	d="
M121.839920,93.694733 
	C121.865288,93.935722 121.427666,93.994682 121.207031,93.985260 
	C120.986397,93.975830 120.984230,93.478790 120.996658,93.230484 
	C121.367188,92.986404 121.635674,93.143600 121.839920,93.694733 
z"/>
<path fill="#9399A1" opacity="1.000000" stroke="none" 
	d="
M34.923813,68.607925 
	C34.938515,72.658371 35.505245,76.206802 37.439644,79.756012 
	C37.709488,80.837631 38.285183,81.454338 38.860874,82.071053 
	C38.908211,82.495903 38.955547,82.920746 38.968498,83.664391 
	C36.697193,88.801460 34.793095,89.248421 31.442692,84.852020 
	C29.058044,81.722885 27.702974,77.809128 25.561396,74.088692 
	C25.523428,67.059853 25.509401,60.156242 26.221455,53.328358 
	C26.614040,49.563843 27.452864,45.381229 32.965866,44.353325 
	C37.259323,44.828533 41.447220,44.396576 42.787445,49.154919 
	C40.897644,50.746948 39.338093,52.223457 37.778542,53.699963 
	C36.819382,53.699963 35.860218,53.699963 34.949787,53.699963 
	C34.590099,54.842148 34.165688,56.189857 33.551090,58.141483 
	C37.358425,60.170406 34.823853,64.487190 34.923813,68.607925 
z"/>
<path fill="#939EB4" opacity="1.000000" stroke="none" 
	d="
M37.406021,96.978882 
	C36.988815,97.444633 36.409084,97.879356 35.446381,98.342743 
	C33.974293,98.292397 32.885181,98.213394 31.400406,98.001984 
	C31.474792,97.611366 31.944841,97.353165 32.690498,97.055008 
	C33.131191,96.987289 33.296276,96.959518 34.094437,96.936821 
	C35.509197,96.849442 36.290878,96.756973 37.072563,96.664505 
	C37.072563,96.664513 37.243500,96.947853 37.406021,96.978882 
z"/>
<path fill="#00051D" opacity="1.000000" stroke="none" 
	d="
M37.917984,95.501045 
	C37.884178,95.771942 37.432430,95.849930 36.920250,95.889709 
	C35.998306,95.615974 35.588535,95.302460 35.178764,94.988945 
	C36.103107,95.069351 37.027447,95.149750 37.917984,95.501045 
z"/>
<path fill="#343C53" opacity="1.000000" stroke="none" 
	d="
M34.910034,95.114517 
	C35.588535,95.302460 35.998306,95.615974 36.696251,95.938316 
	C36.984428,95.947144 36.994217,96.313354 37.033390,96.488930 
	C36.290878,96.756973 35.509197,96.849442 34.337814,96.874992 
	C34.179173,96.285416 34.410236,95.762756 34.910034,95.114517 
z"/>
<path fill="#7C879A" opacity="1.000000" stroke="none" 
	d="
M37.666382,100.105782 
	C38.036339,100.177338 38.027832,100.572021 38.024548,100.769318 
	C36.706989,100.859619 35.392654,100.753250 34.079952,100.629585 
	C34.072704,100.628899 34.038097,100.337822 34.105431,100.266411 
	C34.199543,100.166580 34.377689,100.145988 34.779930,99.994492 
	C35.792126,99.943069 36.544273,99.988647 37.666382,100.105782 
z"/>
<path fill="#101B36" opacity="1.000000" stroke="none" 
	d="
M37.939026,53.963791 
	C39.338093,52.223457 40.897644,50.746948 43.142666,49.141323 
	C44.450153,47.627007 45.072170,46.241806 46.033401,44.101192 
	C46.924473,44.264332 48.945423,44.634335 50.966373,45.004337 
	C52.023739,45.670837 53.081108,46.337337 54.643562,47.068066 
	C55.148651,47.132294 55.534409,47.449577 55.534409,47.449577 
	C55.898151,51.964649 59.033092,53.919128 62.765404,55.946720 
	C62.174629,58.029297 61.606945,59.465458 61.039261,60.901623 
	C58.908726,65.022041 56.156113,65.478470 52.597370,63.306255 
	C50.491917,62.021114 47.607674,61.848110 45.030235,61.549236 
	C42.764946,61.286560 39.885635,62.414005 38.262810,61.380444 
	C35.437759,59.581207 37.588348,57.231396 39.030182,55.277637 
	C39.088028,55.199257 38.426086,54.589691 37.939026,53.963791 
z"/>
<path fill="#1F2639" opacity="1.000000" stroke="none" 
	d="
M51.052452,44.687447 
	C48.945423,44.634335 46.924473,44.264332 46.033401,44.101192 
	C45.072170,46.241806 44.450153,47.627007 43.472916,49.025799 
	C41.447220,44.396576 37.259323,44.828533 33.235443,44.136909 
	C32.659538,43.974216 32.430424,43.886635 32.278305,43.362301 
	C32.579990,42.749783 32.835892,42.492344 33.399792,42.202377 
	C34.130772,41.775658 34.553757,41.381470 35.361618,40.839317 
	C36.263191,40.513649 36.779877,40.335941 37.296566,40.158234 
	C41.083908,44.740623 43.638756,39.753773 47.165615,38.827900 
	C44.991585,44.723389 48.706600,43.075176 52.027584,42.012127 
	C51.583267,43.190781 51.360897,43.780666 51.052452,44.687447 
z"/>
<path fill="#9299A8" opacity="1.000000" stroke="none" 
	d="
M61.380325,60.928108 
	C61.606945,59.465458 62.174629,58.029297 62.928490,56.298389 
	C64.066536,54.875278 65.009499,53.739243 65.972694,52.620625 
	C67.013565,51.411800 68.073349,50.219254 69.486450,49.012222 
	C69.703484,50.147846 69.558937,51.290852 68.950790,52.627689 
	C68.110977,52.856010 67.734772,52.890503 67.358559,52.924992 
	C67.692795,53.333847 68.027039,53.742706 68.361275,54.151566 
	C67.881454,55.093765 67.401634,56.035965 66.853920,57.288795 
	C65.097816,58.717815 63.409603,59.836201 61.380325,60.928108 
z"/>
<path fill="#A7AFBC" opacity="1.000000" stroke="none" 
	d="
M37.444828,39.918724 
	C36.779877,40.335941 36.263191,40.513649 35.030350,40.847450 
	C33.875469,41.057312 33.436737,41.111080 33.019814,40.826012 
	C33.095135,40.267220 33.148647,40.047272 33.202156,39.827328 
	C33.369164,39.452503 33.536175,39.077679 33.787697,38.515575 
	C35.081646,37.723064 36.291080,37.117828 37.697388,36.238300 
	C38.783283,36.136658 39.672314,36.309307 40.979431,36.563152 
	C39.590134,37.841564 38.591614,38.760391 37.444828,39.918724 
z"/>
<path fill="#101B36" opacity="1.000000" stroke="none" 
	d="
M54.970856,46.956917 
	C55.121399,46.878162 55.449738,46.974785 55.656242,47.260494 
	C55.534409,47.449577 55.148651,47.132294 54.970856,46.956917 
z"/>
<path fill="#9195A1" opacity="1.000000" stroke="none" 
	d="
M32.875267,39.935398 
	C33.148647,40.047272 33.095135,40.267220 33.040520,41.092705 
	C33.056877,41.877132 33.074337,42.056019 33.091793,42.234905 
	C32.835892,42.492344 32.579990,42.749783 32.153912,43.222305 
	C31.506891,42.858971 31.030045,42.280556 30.693390,41.423630 
	C31.405182,40.777905 31.976780,40.410686 32.875267,39.935398 
z"/>
<path fill="#46AAE5" opacity="1.000000" stroke="none" 
	d="
M78.918839,80.921875 
	C79.914047,81.944313 81.625450,82.892403 81.933342,84.176903 
	C82.715782,87.441269 82.869995,90.856216 83.322472,94.597641 
	C79.109337,92.999168 79.109337,92.999168 78.902153,81.314377 
	C78.844986,80.843109 78.995888,81.000725 78.918839,80.921875 
z"/>
<path fill="#D9E2EC" opacity="1.000000" stroke="none" 
	d="
M110.347115,64.457306 
	C110.059776,65.319527 109.763153,66.757721 109.514648,66.749451 
	C106.687202,66.655411 103.867104,66.340492 100.615219,66.045647 
	C103.458687,61.934441 103.458687,61.934441 109.869049,64.361313 
	C110.182343,64.437706 110.360184,64.361435 110.347115,64.457306 
z"/>
<path fill="#D6DBE8" opacity="1.000000" stroke="none" 
	d="
M50.414635,65.130219 
	C47.431606,66.122543 44.383060,66.744812 41.334515,67.367088 
	C41.221722,66.723274 41.108929,66.079468 40.996136,65.435661 
	C43.779255,63.231495 46.618961,61.362080 50.414635,65.130219 
z"/>
<path fill="#9197A0" opacity="1.000000" stroke="none" 
	d="
M68.545425,54.012146 
	C68.027039,53.742706 67.692795,53.333847 67.358559,52.924992 
	C67.734772,52.890503 68.110977,52.856010 68.736557,52.909233 
	C68.993721,53.316162 68.908279,53.608089 68.545425,54.012146 
z"/>
<path fill="#1B2236" opacity="1.000000" stroke="none" 
	d="
M39.107872,81.883026 
	C38.285183,81.454338 37.709488,80.837631 37.411690,80.066666 
	C38.244678,80.506607 38.799770,81.100800 39.107872,81.883026 
z"/>
<path fill="#8B93A6" opacity="1.000000" stroke="none" 
	d="
M33.399792,42.202377 
	C33.074337,42.056019 33.056877,41.877132 33.018707,41.431549 
	C33.436737,41.111080 33.875469,41.057312 34.645470,40.995411 
	C34.553757,41.381470 34.130772,41.775658 33.399792,42.202377 
z"/>
</svg>